<svg xmlns="http://www.w3.org/2000/svg" width="212.242" height="54.102"><g data-name="Grupo 2" transform="translate(-50 -131.835)"><g data-name="Capa 2"><g data-name="Grupo 1" transform="translate(30.165 121.352)" fill="#fff"><path data-name="Trazado 1" d="M102.761 29.609a4.686 4.686 0 0 1-1.442 1.958 7.117 7.117 0 0 1-2.565 1.234 14.344 14.344 0 0 1-3.811.437h-7.891V10.486h7.695a14.193 14.193 0 0 1 3.7.411 6.393 6.393 0 0 1 2.4 1.149 4.177 4.177 0 0 1 1.305 1.769 6.288 6.288 0 0 1 .392 2.258 6.464 6.464 0 0 1-.313 2.128 4.257 4.257 0 0 1-.861 1.508 4.579 4.579 0 0 1-1.305 1.005 9.528 9.528 0 0 1-1.671.653v.2a10.077 10.077 0 0 1 1.814.555 4.868 4.868 0 0 1 1.54.985 4.729 4.729 0 0 1 1.064 1.592 6.175 6.175 0 0 1 .4 2.363 6.861 6.861 0 0 1-.457 2.539m-4.203-15.153a3.265 3.265 0 0 0-1.4-.94 6.4 6.4 0 0 0-1.749-.346c-.62 0-1.155-.046-1.612-.046h-3.4v7.142h3.315a11.094 11.094 0 0 0 1.9-.163 5.539 5.539 0 0 0 1.736-.581 3.45 3.45 0 0 0 1.266-1.188 3.682 3.682 0 0 0 .483-1.991 2.786 2.786 0 0 0-.542-1.886m.718 10.442a3.41 3.41 0 0 0-1.305-1.181 6.1 6.1 0 0 0-1.847-.653 13.113 13.113 0 0 0-2.18-.176h-3.544v7.687h3.733a15.31 15.31 0 0 0 2.193-.15 5.316 5.316 0 0 0 1.788-.548 2.959 2.959 0 0 0 1.181-1.155 3.917 3.917 0 0 0 .424-1.958 3.627 3.627 0 0 0-.47-1.919"/><path data-name="Trazado 2" d="M117.158 33.499a90.515 90.515 0 0 1-3.524.065 18.743 18.743 0 0 1-3.028-.222 6.359 6.359 0 0 1-2.376-.848 4.189 4.189 0 0 1-1.54-1.7 6.213 6.213 0 0 1-.555-2.806 4.686 4.686 0 0 1 .9-3.067 5.174 5.174 0 0 1 2.245-1.592 9.547 9.547 0 0 1 2.924-.581 52.265 52.265 0 0 1 2.917-.085 10.44 10.44 0 0 1 1.234.052 14.057 14.057 0 0 0 1.534.046 20.442 20.442 0 0 0-.1-2.226 2.313 2.313 0 0 0-.568-1.358 2.681 2.681 0 0 0-1.462-.7 15.922 15.922 0 0 0-2.78-.189 20.278 20.278 0 0 0-2.819.209c-.972.144-1.912.3-2.826.47v-2.545a30.322 30.322 0 0 1 6-.613 26.5 26.5 0 0 1 3.218.176 6.443 6.443 0 0 1 2.441.764 3.866 3.866 0 0 1 1.553 1.7 6.9 6.9 0 0 1 .548 3v11.73c-1.449.17-2.767.281-3.916.32m.757-8.341c-.692 0-1.305-.039-1.788-.065s-.868 0-1.109 0a22.324 22.324 0 0 0-2.3.111 5.469 5.469 0 0 0-1.743.457 2.553 2.553 0 0 0-1.09.927 2.812 2.812 0 0 0-.372 1.527 2.943 2.943 0 0 0 .437 1.7 2.67 2.67 0 0 0 1.168.94 5.874 5.874 0 0 0 1.684.4 18.6 18.6 0 0 0 1.925.1 12.589 12.589 0 0 0 1.305-.046l1.886-.117z"/><path data-name="Trazado 3" d="M137.782 33.208v-10.9c0-.457 0-.914-.046-1.371a3.127 3.127 0 0 0-.326-1.214 2.143 2.143 0 0 0-.875-.907 3.481 3.481 0 0 0-1.7-.339 6.311 6.311 0 0 0-1.364.163c-.5.1-1 .235-1.495.385s-.979.32-1.442.509l-1.253.5v13.174h-3.214v-17.1h2.989v1.56c.842-.365 1.566-.653 2.173-.914a13.336 13.336 0 0 1 1.651-.548 8.71 8.71 0 0 1 1.462-.294 14.751 14.751 0 0 1 1.592-.078 6.491 6.491 0 0 1 1.834.274 4.533 4.533 0 0 1 1.658.907 4.851 4.851 0 0 1 1.181 1.625 5.729 5.729 0 0 1 .457 2.382v12.186z"/><path data-name="Trazado 4" d="M156.546 33.486c-.711.052-1.423.078-2.108.078a12.019 12.019 0 0 1-3.8-.568 7.93 7.93 0 0 1-2.957-1.716 7.754 7.754 0 0 1-1.911-2.892 10.99 10.99 0 0 1-.653-4.04 8.771 8.771 0 0 1 .711-3.635 7.837 7.837 0 0 1 1.958-2.682 8.534 8.534 0 0 1 2.9-1.651 11.1 11.1 0 0 1 3.59-.568h1.233a6.076 6.076 0 0 1 1.051.059c.333.059.653.078 1.025.131l1.136.176v2.539c-.692-.111-1.305-.2-1.782-.261a11.033 11.033 0 0 0-1.56-.1 10.665 10.665 0 0 0-2.7.326 5.982 5.982 0 0 0-2.16 1.031 4.834 4.834 0 0 0-1.442 1.873 6.794 6.794 0 0 0-.522 2.806 6.29 6.29 0 0 0 1.84 4.98 7.255 7.255 0 0 0 5.012 1.606c.476 0 .979-.052 1.527-.091s1.188-.137 1.958-.261v2.552a18.034 18.034 0 0 1-2.3.339"/><path data-name="Trazado 5" d="M177.522 28.226a8.417 8.417 0 0 1-1.782 2.872 8.155 8.155 0 0 1-2.728 1.867 8.8 8.8 0 0 1-3.459.653 9.45 9.45 0 0 1-3.648-.653 7.555 7.555 0 0 1-2.715-1.867 7.922 7.922 0 0 1-1.671-2.852 11.288 11.288 0 0 1-.568-3.668 10.868 10.868 0 0 1 .587-3.687 7.648 7.648 0 0 1 1.671-2.774 7.289 7.289 0 0 1 2.7-1.756 10.121 10.121 0 0 1 3.648-.613 9.99 9.99 0 0 1 3.635.613 7.462 7.462 0 0 1 2.7 1.756 7.592 7.592 0 0 1 1.69 2.774 11.047 11.047 0 0 1 .581 3.687 10.166 10.166 0 0 1-.653 3.648m-4.112-8.38a5.221 5.221 0 0 0-7.376-.338q-.176.162-.338.338a7.6 7.6 0 0 0-1.305 4.732 8.1 8.1 0 0 0 1.305 4.856 5.045 5.045 0 0 0 7.714 0 8.1 8.1 0 0 0 1.305-4.856 7.6 7.6 0 0 0-1.305-4.732"/><path data-name="Trazado 6" d="M90.498 44.274v7.525h8.563v2.761h-8.563v9.672h-3.446V41.513h14.443v2.761z"/><path data-name="Trazado 7" d="M103.734 39.888h3.26v3.152h-3.26zm0 7.3h3.26v17.044h-3.26z"/><path data-name="Trazado 8" d="M123.764 64.232v-10.9a11.97 11.97 0 0 0-.052-1.364 3.152 3.152 0 0 0-.32-1.22 2.108 2.108 0 0 0-.881-.875 3.462 3.462 0 0 0-1.7-.346 6.256 6.256 0 0 0-1.358.163 19.933 19.933 0 0 0-2.937.892l-1.253.5v13.15h-3.221V47.139h2.989v1.56c.842-.365 1.573-.653 2.173-.914a15.067 15.067 0 0 1 1.658-.581 9.367 9.367 0 0 1 1.462-.292 14.581 14.581 0 0 1 1.592-.085 6.494 6.494 0 0 1 1.834.281 4.411 4.411 0 0 1 1.651.907 4.769 4.769 0 0 1 1.214 1.625 5.7 5.7 0 0 1 .45 2.382v12.2z"/><path data-name="Trazado 9" d="M141.626 64.506a90.577 90.577 0 0 1-3.524.072 18.9 18.9 0 0 1-3.035-.228 6.478 6.478 0 0 1-2.369-.842 4.142 4.142 0 0 1-1.54-1.7 6.177 6.177 0 0 1-.555-2.806 4.7 4.7 0 0 1 .9-3.074 5.219 5.219 0 0 1 2.245-1.586 9.956 9.956 0 0 1 2.924-.587 59.533 59.533 0 0 1 2.917-.078 11.984 11.984 0 0 1 1.234.046c.457.046.966.052 1.534.052a20.442 20.442 0 0 0-.1-2.226 2.3 2.3 0 0 0-.574-1.364 2.7 2.7 0 0 0-1.449-.685 15.18 15.18 0 0 0-2.774-.2 19.326 19.326 0 0 0-2.826.215c-.972.137-1.912.294-2.826.47v-2.532a30.294 30.294 0 0 1 6-.653 26.509 26.509 0 0 1 3.218.183 6.333 6.333 0 0 1 2.434.764 3.811 3.811 0 0 1 1.56 1.749 6.877 6.877 0 0 1 .548 3v11.748c-1.449.17-2.767.281-3.916.32m.764-8.334l-1.795-.065c-.5 0-.868-.033-1.1-.033a21.955 21.955 0 0 0-2.3.111 5.53 5.53 0 0 0-1.749.457 2.553 2.553 0 0 0-1.09.927 2.8 2.8 0 0 0-.372 1.527 2.9 2.9 0 0 0 .437 1.7 2.614 2.614 0 0 0 1.175.94 6 6 0 0 0 1.677.411 18.607 18.607 0 0 0 1.925.1 10.967 10.967 0 0 0 1.305-.052l1.893-.117z"/><path data-name="Trazado 10" d="M162.257 64.232v-10.9a11.97 11.97 0 0 0-.052-1.364 3.044 3.044 0 0 0-.32-1.22 2.127 2.127 0 0 0-.875-.875 3.51 3.51 0 0 0-1.71-.346 6.256 6.256 0 0 0-1.358.163 19.933 19.933 0 0 0-2.937.892l-1.253.5v13.15h-3.21V47.139h2.983v1.56c.848-.365 1.573-.653 2.18-.914a14.654 14.654 0 0 1 1.651-.581 9.523 9.523 0 0 1 1.462-.292 14.581 14.581 0 0 1 1.592-.085 6.494 6.494 0 0 1 1.834.281 4.365 4.365 0 0 1 1.651.907 4.772 4.772 0 0 1 1.188 1.625 5.708 5.708 0 0 1 .457 2.382v12.2z"/><path data-name="Trazado 11" d="M185.171 43.621v20.387l-1.429.209a35.195 35.195 0 0 1-3.224.331c-.548.031-1.07.046-1.547.046a11.989 11.989 0 0 1-3.727-.561 8.629 8.629 0 0 1-2.989-1.671 7.748 7.748 0 0 1-1.958-2.754 9.418 9.418 0 0 1-.711-3.785 11.672 11.672 0 0 1 .568-3.733 7.884 7.884 0 0 1 1.671-2.872 7.647 7.647 0 0 1 2.715-1.854 9.794 9.794 0 0 1 3.714-.653h1.41a21.894 21.894 0 0 1 2.291.209v-7.032h3.263zm-3.263 5.874c-.7-.1-1.273-.183-1.743-.228s-.888-.065-1.253-.065a5.8 5.8 0 0 0-4.418 1.592c-1.012 1.057-1.514 2.708-1.514 4.934a7.765 7.765 0 0 0 .411 2.611 5.744 5.744 0 0 0 1.168 2.01 5.309 5.309 0 0 0 1.906 1.305 6.813 6.813 0 0 0 2.611.47c.3 0 .653 0 1.123-.039s1.012-.059 1.71-.124z"/><path data-name="Trazado 12" d="M190.236 39.888h3.263v3.152h-3.263zm0 7.3h3.263v17.044h-3.263z"/><path data-name="Trazado 13" d="M210.266 64.232v-10.9a11.963 11.963 0 0 0-.052-1.364 3.158 3.158 0 0 0-.326-1.22 2.127 2.127 0 0 0-.875-.875 3.483 3.483 0 0 0-1.7-.346 6.311 6.311 0 0 0-1.364.163c-.5.111-.992.241-1.495.392s-.979.32-1.442.5l-1.247.5v13.15h-3.221V47.139h2.99v1.56c.842-.365 1.566-.653 2.173-.914a14.712 14.712 0 0 1 1.658-.581 9.442 9.442 0 0 1 1.455-.292 14.747 14.747 0 0 1 1.592-.085 6.444 6.444 0 0 1 1.834.281 4.442 4.442 0 0 1 1.658.907 4.757 4.757 0 0 1 1.181 1.625 5.6 5.6 0 0 1 .457 2.382v12.2z"/><path data-name="Trazado 14" d="M228.129 64.506a90.27 90.27 0 0 1-3.518.072 18.825 18.825 0 0 1-3.035-.228 6.478 6.478 0 0 1-2.369-.842 4.245 4.245 0 0 1-1.547-1.7 6.264 6.264 0 0 1-.548-2.806 4.7 4.7 0 0 1 .875-3.061 5.218 5.218 0 0 1 2.245-1.586 10 10 0 0 1 2.93-.587 59.267 59.267 0 0 1 2.911-.078 12.043 12.043 0 0 1 1.24.046c.457.046.966.052 1.527.052a20.43 20.43 0 0 0-.1-2.226 2.333 2.333 0 0 0-.568-1.364 2.726 2.726 0 0 0-1.442-.7 15.18 15.18 0 0 0-2.774-.2 19.506 19.506 0 0 0-2.826.215q-1.462.2-2.819.47v-2.53a30.2 30.2 0 0 1 6-.653 26.4 26.4 0 0 1 3.211.183 6.389 6.389 0 0 1 2.441.764 3.845 3.845 0 0 1 1.56 1.749 6.974 6.974 0 0 1 .542 3v11.748c-1.449.17-2.761.281-3.916.32m.764-8.334l-1.795-.065c-.5 0-.868-.033-1.1-.033a21.963 21.963 0 0 0-2.3.111 5.565 5.565 0 0 0-1.749.457 2.536 2.536 0 0 0-1.083.927 2.744 2.744 0 0 0-.379 1.527 2.9 2.9 0 0 0 .437 1.7 2.614 2.614 0 0 0 1.175.94 6 6 0 0 0 1.677.411 18.608 18.608 0 0 0 1.925.1 10.967 10.967 0 0 0 1.305-.052l1.893-.117z"/></g></g><g data-name="Grupo 3" transform="translate(15.108 131.835)" fill="#fff"><path data-name="Trazado 23" d="M61.939 0a27.051 27.051 0 0 0-24.15 14.855c2.213 2.426 9.363 8.023 17.449 5.845a15.152 15.152 0 0 0 5.364-2.727c5.173-3.947 8.34-9.818 22.263-8.059A26.992 26.992 0 0 0 61.939 0"/><path data-name="Trazado 24" d="M69.355 42.589c-6.8 3.056-13.389 7.367-29.577-.032l.009.012a27.054 27.054 0 0 0 45.009-1.045c-6.838-2.272-11.18-.851-15.441 1.064"/><path data-name="Trazado 25" d="M75.516 17.451c6.374-1.436 7.781-4.744 7.52-6.408a35.014 35.014 0 0 0-4.907-.3c-9.247-.018-15.634 7.229-15.787 7.364 1.384.064 8.227.46 13.175-.654"/><path data-name="Trazado 26" d="M40.598 41.543a36.9 36.9 0 0 0 15.363 3.956 27.651 27.651 0 0 0 12.088-3.331c-2.975-1.067-6.838-2.708-12.635-2.674-7.526.046-12.219.73-14.822 2.048"/><path data-name="Trazado 27" d="M67.732 26.622a11.134 11.134 0 0 1-4.428 2.088c12.663.9 22.148-5.194 23.355-12.154-.628-.325-3.316-3.042-18.926 10.066"/><path data-name="Trazado 28" d="M87.323 17.679a.063.063 0 0 1 0 .013c-1.548 8.87-14.3 13.513-28.7 11.509A51.405 51.405 0 0 1 35.8 20.087v.007a27.174 27.174 0 0 0 .717 16.2c.334.155 7.423 4.73 32.225-.609a38.7 38.7 0 0 1 18.568.774 27.133 27.133 0 0 0 .016-18.782"/></g></g></svg>